# xmcd
#
# Track frame offsets: 
#        150
#        14617
#        28247
#        45815
#        56455
#        71690
#        86537
#        97852
#        110685
#        124030
#        136932
#        152275
#        170245
#        181702
#        197455
#
# Disc length: 2798 seconds
#
# Revision: 1
# Processed by: cddbd v1.5.2PL0 Copyright (c) Steve Scherf et al.
# Submitted via: ExactAudioCopy v1.0b3
#
DISCID=b90aec0f
DTITLE=Louis Armstrong - Hello Dolly
DYEAR=1900
DGENRE=Jazz
TTITLE0=When The Saints Go Marching In
TTITLE1=Ain't Misbehavin'
TTITLE2=Cabaret
TTITLE3=Mame
TTITLE4=Please Don't Talk About Me When I'm Gone
TTITLE5=Blueberry Hill
TTITLE6=Hello Dolly
TTITLE7=St. Louis Blues
TTITLE8=A Kiss To Build A Dream On
TTITLE9=That's My Desire
TTITLE10=Mack The Knife
TTITLE11=Black Ole Town Blues
TTITLE12=Tiger Rag
TTITLE13=Black And Blue
TTITLE14=C'est Si Bon
EXTD=
EXTT0=
EXTT1=
EXTT2=
EXTT3=
EXTT4=
EXTT5=
EXTT6=
EXTT7=
EXTT8=
EXTT9=
EXTT10=
EXTT11=
EXTT12=
EXTT13=
EXTT14=
PLAYORDER=
